<svg width="37" height="37" viewBox="0 0 37 37" fill="none" xmlns="http://www.w3.org/2000/svg">
<path d="M26.306 0.846436H10.4599C5.07869 0.846436 0.700684 5.22465 0.700684 10.6059V26.452C0.700684 31.8334 5.07869 36.2115 10.4599 36.2115H26.306C31.6877 36.2115 36.0657 31.8332 36.0657 26.452V10.6059C36.0659 5.22465 31.6877 0.846436 26.306 0.846436ZM32.9282 26.452C32.9282 30.1033 29.9575 33.0737 26.3062 33.0737H10.4599C6.80885 33.0739 3.83844 30.1033 3.83844 26.452V10.6059C3.83844 6.95481 6.80885 3.98419 10.4599 3.98419H26.306C29.9573 3.98419 32.9279 6.95481 32.9279 10.6059V26.452H32.9282Z" fill="#21243D"/>
<path d="M18.3832 9.41675C13.3584 9.41675 9.27051 13.5046 9.27051 18.5294C9.27051 23.554 13.3584 27.6417 18.3832 27.6417C23.408 27.6417 27.4958 23.554 27.4958 18.5294C27.4958 13.5046 23.408 9.41675 18.3832 9.41675ZM18.3832 24.5037C15.0887 24.5037 12.4083 21.8236 12.4083 18.5292C12.4083 15.2346 15.0885 12.5543 18.3832 12.5543C21.6778 12.5543 24.3581 15.2346 24.3581 18.5292C24.3581 21.8236 21.6776 24.5037 18.3832 24.5037Z" fill="#21243D"/>
<path d="M27.8782 6.7561C27.2736 6.7561 26.6798 7.00085 26.2528 7.42968C25.8238 7.85641 25.5771 8.45049 25.5771 9.05712C25.5771 9.66187 25.824 10.2557 26.2528 10.6846C26.6795 11.1113 27.2736 11.3581 27.8782 11.3581C28.4848 11.3581 29.0768 11.1113 29.5056 10.6846C29.9344 10.2557 30.1792 9.66167 30.1792 9.05712C30.1792 8.45049 29.9344 7.85641 29.5056 7.42968C29.0789 7.00085 28.4848 6.7561 27.8782 6.7561Z" fill="#21243D"/>
</svg>
