<svg width="36" height="37" viewBox="0 0 36 37" fill="none" xmlns="http://www.w3.org/2000/svg">
<path d="M30.3855 0.846436H5.38135C2.5251 0.846436 0.200928 3.17061 0.200928 6.02686V31.031C0.200928 33.8873 2.5251 36.2115 5.38135 36.2115H30.3855C33.2418 36.2115 35.5659 33.8873 35.5659 31.031V6.02686C35.5659 3.17061 33.2418 0.846436 30.3855 0.846436ZM12.703 28.8898H8.55868V14.3846H12.703V28.8898ZM12.703 12.3124H8.55868V8.1681H12.703V12.3124ZM27.2082 28.8898H23.0639V20.6011C23.0639 19.4587 22.1341 18.5289 20.9917 18.5289C19.8493 18.5289 18.9195 19.4587 18.9195 20.6011V28.8898H14.7752V14.3846H18.9195V15.1657C20.0053 14.8282 20.7105 14.3846 22.0278 14.3846C24.8384 14.3876 27.2082 16.909 27.2082 19.8888V28.8898Z" fill="#21243D"/>
</svg>
