<svg width="44" height="37" viewBox="0 0 44 37" fill="none" xmlns="http://www.w3.org/2000/svg">
<path d="M43.8509 5.03311C42.2323 5.74313 40.5075 6.21376 38.7094 6.44227C40.5592 5.33779 41.9711 3.60219 42.6349 1.51021C40.9101 2.53852 39.0059 3.26486 36.9765 3.6702C35.3388 1.92643 33.0047 0.846436 30.4584 0.846436C25.5182 0.846436 21.541 4.85629 21.541 9.77202C21.541 10.4793 21.6008 11.1594 21.7477 11.8069C14.3293 11.4451 7.76496 7.88952 3.35522 2.47323C2.58535 3.80894 2.13376 5.33779 2.13376 6.98363C2.13376 10.074 3.72519 12.8134 6.09737 14.3994C4.66372 14.3722 3.25728 13.956 2.06575 13.3004C2.06575 13.3276 2.06575 13.3629 2.06575 13.3983C2.06575 17.7346 5.15883 21.3364 9.21493 22.1661C8.48859 22.3647 7.69695 22.4599 6.8754 22.4599C6.30412 22.4599 5.72739 22.4273 5.18604 22.3076C6.3422 25.8413 9.62299 28.4393 13.524 28.5236C10.4881 30.8985 6.63328 32.3295 2.46021 32.3295C1.72843 32.3295 1.02657 32.2968 0.324707 32.207C4.27743 34.756 8.96193 36.2115 14.0137 36.2115C30.4339 36.2115 39.4112 22.6095 39.4112 10.8194C39.4112 10.4249 39.3976 10.0441 39.3786 9.66593C41.1495 8.40911 42.6376 6.83945 43.8509 5.03311Z" fill="#21243D"/>
</svg>
